<svg width="20" height="20" viewBox="0 0 20 20" fill="none" xmlns="http://www.w3.org/2000/svg">
<g clip-path="url(#clip0_602_109)">
<path fill-rule="evenodd" clip-rule="evenodd" d="M2.0562 0.627629C2.45806 0.225764 3.00312 0 3.57143 0H12.1429C12.3323 0 12.514 0.0752549 12.6479 0.20921L18.3623 5.9235C18.4961 6.05744 18.5714 6.23913 18.5714 6.42857V17.8571C18.5714 18.4254 18.3457 18.9706 17.9439 19.3724C17.542 19.7743 16.9969 20 16.4286 20H3.57143C3.0031 20 2.45806 19.7743 2.0562 19.3724C1.65435 18.9706 1.42857 18.4254 1.42857 17.8571V2.14286C1.42857 1.57454 1.65435 1.02949 2.0562 0.627629ZM8.67972 4.81013C8.79362 5.29344 8.83584 5.93669 8.835 6.63081C9.81822 8.20173 11.4279 10.1592 12.7724 11.388C13.3941 11.3463 13.9978 11.3605 14.4724 11.4884C14.7524 11.5639 15.1373 11.7175 15.3966 12.07C15.7037 12.4875 15.6864 12.9674 15.5386 13.3495C15.3896 13.7348 15.0883 14.0623 14.6354 14.1842C14.2439 14.2896 13.8688 14.204 13.5951 14.1041C13.143 13.939 12.6589 13.6183 12.1886 13.2407C10.7441 13.4286 8.94912 13.8932 7.63469 14.4211C7.448 14.9419 7.2218 15.4277 6.94179 15.7761C6.76717 15.9934 6.48937 16.2616 6.0884 16.3596C5.62754 16.4723 5.21537 16.3134 4.91894 16.0649C4.6254 15.8189 4.37769 15.4356 4.41373 14.9427C4.44536 14.51 4.68627 14.1854 4.88346 13.9809C5.20123 13.6513 5.6702 13.363 6.17553 13.1149C6.64926 11.4254 6.98703 8.96593 7.04154 7.11426C6.72362 6.56486 6.46337 6.02744 6.32793 5.56041C6.25275 5.30116 6.19192 4.98473 6.23403 4.66737C6.28109 4.31261 6.47157 3.90807 6.91312 3.68994C7.10604 3.59464 7.36113 3.53021 7.64566 3.58651C7.92793 3.64236 8.13453 3.79636 8.27093 3.94654C8.51319 4.21326 8.62099 4.56093 8.67972 4.81013ZM8.65483 9.47729C9.25116 10.2511 9.90747 11.0231 10.5574 11.7086C9.77097 11.8711 8.95996 12.0827 8.20306 12.3238C8.39262 11.421 8.54643 10.4364 8.65483 9.47729Z" fill="#D9D9D9"/>
</g>
<defs>
<clipPath id="clip0_602_109">
<rect width="20" height="20" fill="white"/>
</clipPath>
</defs>
</svg>
