<svg width="20" height="20" viewBox="0 0 20 20" fill="none" xmlns="http://www.w3.org/2000/svg">
<g clip-path="url(#clip0_602_117)">
<path fill-rule="evenodd" clip-rule="evenodd" d="M2.1429 0.581711C0.959434 0.581711 4.62361e-05 1.5411 4.23193e-05 2.72456L0 6.90253C0 8.086 0.95939 9.04539 2.14286 9.04539H17.8571C19.0406 9.04539 20 8.086 20 6.90254V2.72457C20 1.5411 19.0407 0.581711 17.8571 0.581711H2.1429ZM4.23193e-05 13.0975C4.62361e-05 11.914 0.959434 10.9546 2.1429 10.9546H17.8571C19.0407 10.9546 20 11.914 20 13.0975V17.2754C20 18.4589 19.0406 19.4183 17.8571 19.4183H2.14286C0.95939 19.4183 0 18.4589 0 17.2754L4.23193e-05 13.0975ZM2.9235 4.81356C2.9235 3.92596 3.64304 3.20642 4.53064 3.20642C5.41824 3.20642 6.13779 3.92596 6.13779 4.81356C6.13779 5.70116 5.41824 6.4207 4.53064 6.4207C3.64304 6.4207 2.9235 5.70116 2.9235 4.81356ZM2.9235 15.1864C2.9235 14.2989 3.64304 13.5793 4.53064 13.5793C5.41824 13.5793 6.13779 14.2989 6.13779 15.1864C6.13779 16.074 5.41824 16.7936 4.53064 16.7936C3.64304 16.7936 2.9235 16.074 2.9235 15.1864ZM9.82143 4.81356C9.82143 4.32044 10.2212 3.9207 10.7143 3.9207H15.7143C16.2074 3.9207 16.6071 4.32044 16.6071 4.81356C16.6071 5.30667 16.2074 5.70642 15.7143 5.70642H10.7143C10.2212 5.70642 9.82143 5.30667 9.82143 4.81356ZM10.7143 14.2936C10.2212 14.2936 9.82143 14.6933 9.82143 15.1864C9.82143 15.6796 10.2212 16.0793 10.7143 16.0793H15.7143C16.2074 16.0793 16.6071 15.6796 16.6071 15.1864C16.6071 14.6933 16.2074 14.2936 15.7143 14.2936H10.7143Z" fill="#D9D9D9"/>
</g>
<defs>
<clipPath id="clip0_602_117">
<rect width="20" height="20" fill="white"/>
</clipPath>
</defs>
</svg>
