<svg width="20" height="20" viewBox="0 0 20 20" fill="none" xmlns="http://www.w3.org/2000/svg">
<g clip-path="url(#clip0_602_93)">
<path fill-rule="evenodd" clip-rule="evenodd" d="M0.275704 2.81254C0.275704 2.65364 0.353713 2.40858 0.69607 2.0892C1.03979 1.76855 1.58576 1.43868 2.33506 1.14303C3.82836 0.553813 5.9523 0.169785 8.34346 0.169785C10.7346 0.169785 12.8586 0.553813 14.3519 1.14303C15.1011 1.43868 15.6471 1.76855 15.9909 2.0892C16.3331 2.40858 16.4111 2.65364 16.4111 2.81254C16.4111 2.97145 16.3331 3.21651 15.9909 3.5359C15.6471 3.85654 15.1011 4.18641 14.3519 4.48207C12.8586 5.07128 10.7346 5.45531 8.34346 5.45531C5.9523 5.45531 3.82836 5.07128 2.33506 4.48207C1.58576 4.18641 1.03979 3.85654 0.69607 3.5359C0.353713 3.21651 0.275704 2.97145 0.275704 2.81254ZM16.593 5.32848C16.1319 5.64083 15.5936 5.91183 15.0073 6.14315C13.2575 6.83358 10.9011 7.24103 8.34346 7.24103C5.78581 7.24103 3.42944 6.83358 1.67964 6.14315C1.09339 5.91183 0.555003 5.64084 0.0939941 5.32848V9.02057C0.150137 9.15343 0.262366 9.31747 0.473861 9.50977C0.82873 9.83244 1.39203 10.1641 2.16377 10.4609C3.70131 11.0524 5.88587 11.4373 8.34344 11.4373C10.801 11.4373 12.9856 11.0524 14.5231 10.4609C15.2949 10.1641 15.8581 9.83244 16.213 9.50977C16.4246 9.31741 16.5369 9.15333 16.593 9.02045V5.32848ZM0.0939941 14.1265V11.4378C0.520223 11.6981 1.00294 11.9277 1.52263 12.1276C3.3121 12.816 5.72386 13.2231 8.34344 13.2231C10.963 13.2231 13.3748 12.816 15.1643 12.1276L15.2063 12.1113L12.7313 14.8957L11.9773 14.3301C10.715 13.3834 8.92411 13.6393 7.97734 14.9016C7.36384 15.7196 7.25531 16.7596 7.5984 17.6479C3.39131 17.4864 0.0939941 15.9706 0.0939941 14.1265ZM19.6353 13.042C20.0284 12.5997 19.9886 11.9225 19.5463 11.5294C19.104 11.1363 18.4269 11.1761 18.0337 11.6184L12.9744 17.3101L10.9059 15.7587C10.4325 15.4037 9.76096 15.4997 9.40591 15.973C9.05089 16.4464 9.14681 17.118 9.6202 17.473L12.4773 19.6159C12.9231 19.9503 13.5508 19.887 13.921 19.4706L19.6353 13.042Z" fill="#D9D9D9"/>
</g>
<defs>
<clipPath id="clip0_602_93">
<rect width="20" height="20" fill="white"/>
</clipPath>
</defs>
</svg>
