<svg width="20" height="20" viewBox="0 0 20 20" fill="none" xmlns="http://www.w3.org/2000/svg">
<g clip-path="url(#clip0_602_101)">
<path fill-rule="evenodd" clip-rule="evenodd" d="M20 10C20 15.5229 15.5229 20 10 20C4.47716 20 0 15.5229 0 10C0 4.47716 4.47716 0 10 0C15.5229 0 20 4.47716 20 10ZM11.4286 11.0463C12.2826 10.5523 12.8571 9.62897 12.8571 8.57143C12.8571 6.99347 11.578 5.71429 10 5.71429C8.42204 5.71429 7.14286 6.99347 7.14286 8.57143C7.14286 9.62897 7.71743 10.5523 8.57143 11.0463V13.5714C8.57143 14.3604 9.21103 15 10 15C10.789 15 11.4286 14.3604 11.4286 13.5714V11.0463Z" fill="#D9D9D9"/>
</g>
<defs>
<clipPath id="clip0_602_101">
<rect width="20" height="20" fill="white"/>
</clipPath>
</defs>
</svg>
