<svg width="20" height="20" viewBox="0 0 20 20" fill="none" xmlns="http://www.w3.org/2000/svg">
<g clip-path="url(#clip0_602_97)">
<path fill-rule="evenodd" clip-rule="evenodd" d="M2.0562 0.627629C2.45806 0.225764 3.00312 0 3.57143 0H12.1429C12.3323 0 12.514 0.0752549 12.6479 0.20921L18.3623 5.9235C18.4961 6.05744 18.5714 6.23913 18.5714 6.42857V17.8571C18.5714 18.4254 18.3457 18.9706 17.9439 19.3724C17.542 19.7743 16.9969 20 16.4286 20H3.57143C3.0031 20 2.45806 19.7743 2.0562 19.3724C1.65435 18.9706 1.42857 18.4254 1.42857 17.8571V2.14286C1.42857 1.57454 1.65435 1.02949 2.0562 0.627629ZM8.52887 7.75354C8.52887 7.444 8.7798 7.19309 9.08933 7.19309H10.9108C11.2203 7.19309 11.4713 7.444 11.4713 7.75354V9.98249H13.7002C14.0098 9.98249 14.2607 10.2334 14.2607 10.5429V12.3644C14.2607 12.674 14.0098 12.9249 13.7002 12.9249H11.4713L11.4712 15.1539C11.4712 15.4634 11.2203 15.7143 10.9107 15.7143H9.08926C8.77973 15.7143 8.5288 15.4634 8.5288 15.1539V12.9249H6.29986C5.99033 12.9249 5.7394 12.674 5.7394 12.3644V10.5429C5.7394 10.2334 5.99033 9.98249 6.29986 9.98249H8.52887V7.75354Z" fill="#D9D9D9"/>
</g>
<defs>
<clipPath id="clip0_602_97">
<rect width="20" height="20" fill="white"/>
</clipPath>
</defs>
</svg>
