<svg width="20" height="20" viewBox="0 0 20 20" fill="none" xmlns="http://www.w3.org/2000/svg">
<g clip-path="url(#clip0_602_121)">
<path fill-rule="evenodd" clip-rule="evenodd" d="M10.8065 8.03724L14.5857 0.476871C14.9036 -0.158957 15.8107 -0.158957 16.1286 0.476871L19.9079 8.03724C20.1946 8.61084 19.7776 9.28571 19.1364 9.28571H11.5779C10.9367 9.28571 10.5197 8.61084 10.8065 8.03724ZM0.714286 0.714983C0.319797 0.714983 0 1.03478 0 1.42927V8.57213C0 8.96661 0.319797 9.28642 0.714286 9.28642H7.85714C8.25163 9.28642 8.57143 8.96661 8.57143 8.57213V1.42927C8.57143 1.03478 8.25163 0.714983 7.85714 0.714983H0.714286ZM8.57143 15.7143C8.57143 18.0813 6.65264 20 4.28571 20C1.91879 20 0 18.0813 0 15.7143C0 13.3474 1.91879 11.4286 4.28571 11.4286C6.65264 11.4286 8.57143 13.3474 8.57143 15.7143ZM12.1429 17.8571C11.5511 17.8571 11.0714 18.3369 11.0714 18.9286C11.0714 19.5203 11.5511 20 12.1429 20H18.5714C19.1631 20 19.6429 19.5203 19.6429 18.9286C19.6429 18.3369 19.1631 17.8571 18.5714 17.8571H12.1429ZM11.0714 15.7143C11.0714 15.1226 11.5511 14.6429 12.1429 14.6429H18.5714C19.1631 14.6429 19.6429 15.1226 19.6429 15.7143C19.6429 16.306 19.1631 16.7857 18.5714 16.7857H12.1429C11.5511 16.7857 11.0714 16.306 11.0714 15.7143ZM12.1429 11.4286C11.5511 11.4286 11.0714 11.9083 11.0714 12.5C11.0714 13.0917 11.5511 13.5714 12.1429 13.5714H18.5714C19.1631 13.5714 19.6429 13.0917 19.6429 12.5C19.6429 11.9083 19.1631 11.4286 18.5714 11.4286H12.1429Z" fill="#D9D9D9"/>
</g>
<defs>
<clipPath id="clip0_602_121">
<rect width="20" height="20" fill="white"/>
</clipPath>
</defs>
</svg>
