<svg width="20" height="20" viewBox="0 0 20 20" fill="none" xmlns="http://www.w3.org/2000/svg">
<g clip-path="url(#clip0_602_105)">
<path fill-rule="evenodd" clip-rule="evenodd" d="M8.7525 0.436308C8.36564 0.142303 7.89046 -0.0114327 7.40493 0.000118212H2.14286C1.57454 0.000118212 1.02949 0.225884 0.627629 0.627746C0.225764 1.02961 0 1.57465 0 2.14298V15.7144C0 16.2828 0.225764 16.8278 0.627629 17.2296C1.02949 17.6315 1.57453 17.8572 2.14286 17.8572H6.7211C6.78359 17.6194 6.87891 17.3834 7.00996 17.1541L11.4934 9.30798C12.5902 7.38852 15.358 7.38851 16.4549 9.30798L19.9571 15.4371V5.00012C19.9571 4.4318 19.7314 3.88675 19.3296 3.48489C18.9277 3.08302 18.3826 2.85727 17.8143 2.85727H9.81384L9.5396 1.64279L9.53634 1.62899C9.41901 1.15354 9.14239 0.732624 8.7525 0.436308ZM12.7337 10.0169C13.2822 9.05715 14.666 9.05715 15.2144 10.0169L19.6979 17.8629C20.2421 18.8152 19.5544 20.0002 18.4576 20.0002H9.49064C8.39374 20.0002 7.70609 18.8152 8.25029 17.8629L12.7337 10.0169ZM13.9741 18.7502C14.4671 18.7502 14.867 18.3505 14.867 17.8574C14.867 17.3642 14.4671 16.9645 13.9741 16.9645C13.481 16.9645 13.0812 17.3642 13.0812 17.8574C13.0812 18.3505 13.481 18.7502 13.9741 18.7502ZM13.9741 12.6788C14.4671 12.6788 14.867 13.0786 14.867 13.5717V15.0002C14.867 15.4934 14.4671 15.8931 13.9741 15.8931C13.481 15.8931 13.0812 15.4934 13.0812 15.0002V13.5717C13.0812 13.0786 13.481 12.6788 13.9741 12.6788Z" fill="#D9D9D9"/>
</g>
<defs>
<clipPath id="clip0_602_105">
<rect width="20" height="20" fill="white"/>
</clipPath>
</defs>
</svg>
