<svg width="20" height="20" viewBox="0 0 20 20" fill="none" xmlns="http://www.w3.org/2000/svg">
<g clip-path="url(#clip0_602_113)">
<path fill-rule="evenodd" clip-rule="evenodd" d="M0 2.5C0 1.11929 1.11929 0 2.5 0H17.5C18.8807 0 20 1.11929 20 2.5V7.15309C20 12.9898 16.1933 18.144 10.6147 19.8604C10.2142 19.9837 9.78584 19.9837 9.38533 19.8604C3.80674 18.144 0 12.9898 0 7.15309V2.5ZM10 9.28571C11.7752 9.28571 13.2143 7.84663 13.2143 6.07143C13.2143 4.29623 11.7752 2.85714 10 2.85714C8.2248 2.85714 6.78571 4.29623 6.78571 6.07143C6.78571 7.84663 8.2248 9.28571 10 9.28571ZM15.9311 13.418C14.4906 11.7615 12.3676 10.7143 9.99994 10.7143C7.63233 10.7143 5.5093 11.7615 4.06877 13.418C5.45703 15.462 7.51906 17.0403 9.99997 17.8076C12.4809 17.0403 14.5429 15.462 15.9311 13.418Z" fill="#D9D9D9"/>
</g>
<defs>
<clipPath id="clip0_602_113">
<rect width="20" height="20" fill="white"/>
</clipPath>
</defs>
</svg>
