<svg width="20" height="20" viewBox="0 0 20 20" fill="none" xmlns="http://www.w3.org/2000/svg">
<path fill-rule="evenodd" clip-rule="evenodd" d="M0 4.28572C0 3.49675 0.639593 2.85715 1.42857 2.85715H18.5714C19.3604 2.85715 20 3.49675 20 4.28572V15.7143C20 16.5033 19.3604 17.1429 18.5714 17.1429H1.42857C0.639594 17.1429 0 16.5033 0 15.7143V4.28572ZM8.57143 7.85715C8.57143 9.04062 7.61204 10 6.42857 10C5.2451 10 4.28571 9.04062 4.28571 7.85715C4.28571 6.67368 5.2451 5.71429 6.42857 5.71429C7.61204 5.71429 8.57143 6.67368 8.57143 7.85715ZM2.2095 13.2889C3.25437 12.1457 4.7577 11.4286 6.42853 11.4286C8.09934 11.4286 9.60267 12.1457 10.6476 13.2889C11.0187 13.6949 10.6901 14.2857 10.14 14.2857H2.71709C2.16696 14.2857 1.83836 13.6949 2.2095 13.2889ZM12.6785 7.85719C12.6785 7.36408 13.0783 6.96433 13.5714 6.96433H16.4286C16.9216 6.96433 17.3214 7.36408 17.3214 7.85719C17.3214 8.3503 16.9216 8.75005 16.4286 8.75005H13.5714C13.0783 8.75005 12.6785 8.3503 12.6785 7.85719ZM13.5714 11.25C13.0783 11.25 12.6785 11.6498 12.6785 12.1429C12.6785 12.636 13.0783 13.0358 13.5714 13.0358H16.4286C16.9216 13.0358 17.3214 12.636 17.3214 12.1429C17.3214 11.6498 16.9216 11.25 16.4286 11.25H13.5714Z" fill="black"/>
</svg>
